<svg width="58" height="58" viewBox="0 0 58 58" fill="none" xmlns="http://www.w3.org/2000/svg">
<path d="M43.5829 50.819C39.2605 53.7052 34.22 55.2381 29 55.2381C14.5276 55.2381 2.7619 43.4724 2.7619 29C2.7619 14.5276 14.5276 2.7619 29 2.7619C43.4724 2.7619 55.2381 14.5276 55.2381 29C55.2381 29.7595 55.8595 30.381 56.619 30.381C57.3786 30.381 58 29.7595 58 29C58 13.0086 44.9914 0 29 0C13.0086 0 0 13.0086 0 29C0 44.9914 13.0086 58 29 58C34.7724 58 40.3376 56.3152 45.1157 53.1114C45.7509 52.6833 45.9167 51.8271 45.4886 51.1919C45.0605 50.5567 44.2043 50.391 43.5829 50.819Z" fill="#6C757D"/>
<path d="M14.7347 43.9282C15.3562 44.3701 16.2124 44.232 16.6681 43.6106C19.5128 39.6473 24.1252 37.2858 29 37.2858C33.8747 37.2858 38.4871 39.6473 41.3457 43.6106C41.6219 43.9835 42.0362 44.1906 42.4643 44.1906C42.7405 44.1906 43.0305 44.1077 43.2652 43.9282C43.8867 43.4863 44.0247 42.6163 43.5828 41.9949C40.2133 37.3273 34.7586 34.5239 29 34.5239C23.2414 34.5239 17.7867 37.3134 14.4171 41.9949C13.9752 42.6163 14.1133 43.4863 14.7347 43.9282Z" fill="#6C757D"/>
<path d="M17.9524 26.183C19.4778 26.183 20.7143 24.9464 20.7143 23.4211C20.7143 21.8957 19.4778 20.6592 17.9524 20.6592C16.427 20.6592 15.1905 21.8957 15.1905 23.4211C15.1905 24.9464 16.427 26.183 17.9524 26.183Z" fill="#6C757D"/>
<path d="M40.0476 26.183C41.573 26.183 42.8095 24.9464 42.8095 23.4211C42.8095 21.8957 41.573 20.6592 40.0476 20.6592C38.5223 20.6592 37.2857 21.8957 37.2857 23.4211C37.2857 24.9464 38.5223 26.183 40.0476 26.183Z" fill="#6C757D"/>
<path d="M48.7615 30.5604C48.2919 30.3533 47.7534 30.4361 47.3529 30.7537C46.9524 31.0714 46.7591 31.5823 46.8557 32.0794C46.8696 32.1485 48.0295 38.639 48.0295 45.0466C48.0295 47.7947 50.2667 50.0318 53.0148 50.0318C55.7629 50.0318 58 47.7809 58 45.0328C58 34.648 49.1343 30.7261 48.7615 30.5604ZM53.0148 47.2561C51.7857 47.2561 50.7915 46.2618 50.7915 45.0328C50.7915 41.0556 50.3772 37.1337 50.0181 34.5514C52.2415 36.2637 55.2243 39.5642 55.2243 45.0328C55.2381 46.2618 54.2438 47.2561 53.0148 47.2561Z" fill="#6C757D"/>
</svg>
